#!OML:ASF F:\VICON\USERDATA\INSTALL\rory3\rory3.ASF
:FULLY-SPECIFIED
:DEGREES
95
root -0.101348 16.0982 5.38059 17.1607 -0.666684 -4.36639
lowerback -2.9639 -0.60877 4.26406
upperback -4.43586 -0.811535 2.03538
thorax -2.94007 -0.50335 -0.293332
lowerneck -15.9306 -3.57503 -8.78118
upperneck 17.4476 -4.21061 7.12081
head 8.39012 -1.86503 3.34501
rclavicle 9.80257e-015 -5.56597e-015
rhumerus -38.5844 7.04993 -87.9214
rradius 43.0257
rwrist 7.60011
rhand -22.4739 -46.7673
rfingers 7.12502
rthumb 3.95114 -76.7104
lclavicle 9.80257e-015 -5.56597e-015
lhumerus -36.8181 -7.60375 88.3477
lradius 41.9348
lwrist 8.95657
lhand -31.2515 -30.6214
lfingers 7.12502
lthumb -4.52598 -0.689783
rfemur -42.3567 2.31975 19.9629
rtibia 58.6881
rfoot -26.3102 -15.2058
rtoes -14.1169
lfemur -42.5777 2.39605 -10.6831
ltibia 58.3032
lfoot -28.1513 9.7437
ltoes -16.7305
96
root -0.0998371 16.0115 5.3548 17.0637 -0.694352 -4.28298
lowerback -2.3055 -0.579479 4.08538
upperback -4.32991 -0.735915 2.04065
thorax -3.19404 -0.462309 -0.181003
lowerneck -16.4561 -3.68719 -8.68691
upperneck 17.2249 -4.31182 7.01821
head 8.41377 -1.9057 3.27504
rclavicle 7.77745e-015 -3.06128e-014
rhumerus -38.5512 7.53781 -87.8441
rradius 43.7799
rwrist 7.59241
rhand -22.1392 -47.514
rfingers 7.12502
rthumb 4.27432 -77.4509
lclavicle 7.77745e-015 -3.06128e-014
lhumerus -36.7428 -8.00297 88.409
lradius 42.5556
lwrist 8.98082
lhand -31.4022 -31.1733
lfingers 7.12502
lthumb -4.67147 -1.24477
rfemur -43.4296 2.01615 19.8802
rtibia 60.5057
rfoot -26.7759 -14.6725
rtoes -14.0175
lfemur -43.6031 2.45071 -10.723
ltibia 60.0795
lfoot -28.4895 9.49012
ltoes -16.4225
97
root -0.0902262 15.8969 5.31973 16.9731 -0.55053 -4.01228
lowerback -1.58385 -0.622092 3.9193
upperback -4.26869 -0.755974 1.9526
thorax -3.53599 -0.472531 -0.169949
lowerneck -16.9343 -3.80471 -8.5194
upperneck 16.9947 -4.4445 6.91737
head 8.42661 -1.9574 3.1896
rclavicle -8.44835e-016 3.77691e-015
rhumerus -38.5593 7.85868 -87.7549
rradius 44.5982
rwrist 7.805
rhand -21.9683 -47.9917
rfingers 7.12502
rthumb 4.43942 -77.9252
lclavicle -8.44835e-016 3.77691e-015
lhumerus -36.6786 -8.45422 88.4229
lradius 43.1878
lwrist 9.02986
lhand -31.3808 -31.7118
lfingers 7.12502
lthumb -4.65086 -1.78282
rfemur -44.3251 1.27811 19.6553
rtibia 62.2897
rfoot -26.8445 -14.4738
rtoes -14.9247
lfemur -44.7354 2.26647 -10.9583
ltibia 61.9082
lfoot -28.7968 9.41221
ltoes -16.4271
98
root -0.0903536 15.7551 5.30075 17.0456 -0.651062 -3.61457
lowerback -1.26754 -0.605404 3.43427
upperback -4.18001 -0.726502 1.85184
thorax -3.61377 -0.443703 -0.000775162
lowerneck -17.4987 -3.88383 -8.40927
upperneck 16.8341 -4.51603 6.86165
head 8.47475 -1.97824 3.13694
rclavicle 7.50412e-015 -7.95139e-016
rhumerus -38.5451 8.2811 -87.6579
rradius 45.3984
rwrist 7.92552
rhand -22.522 -47.405
rfingers 7.12502
rthumb 3.90471 -77.3489
lclavicle 7.50412e-015 -7.95139e-016
lhumerus -36.5555 -8.87331 88.3899
lradius 43.8549
lwrist 9.15312
lhand -31.2305 -31.4094
lfingers 7.12502
lthumb -4.50574 -1.47736
rfemur -45.1421 0.813551 19.2357
rtibia 64.0475
rfoot -26.9261 -14.6069
rtoes -15.3738
lfemur -45.9849 2.34489 -11.3922
ltibia 63.826
lfoot -29.0685 9.74016
ltoes -17.8812
99
root -0.0782269 15.6707 5.29482 17.1346 -0.550915 -3.39241
lowerback -1.02898 -0.625064 3.37111
upperback -4.12013 -0.744871 1.80438
thorax -3.68623 -0.451884 -0.0115963
lowerneck -17.8478 -3.99148 -8.40392
upperneck 16.5543 -4.60308 6.7654
head 8.44693 -2.02137 3.08592
rclavicle -1.49585e-014 -1.98785e-015
rhumerus -38.6187 8.8383 -87.506
rradius 46.2721
rwrist 7.7496
rhand -23.0677 -46.9218
rfingers 7.12502
rthumb 3.37768 -76.8748
lclavicle -1.49585e-014 -1.98785e-015
lhumerus -36.4835 -9.29286 88.4212
lradius 44.4048
lwrist 9.13844
lhand -31.3675 -31.0147
lfingers 7.12502
lthumb -4.63797 -1.08551
rfemur -46.2227 0.222991 18.9542
rtibia 65.7602
rfoot -27.2463 -13.9918
rtoes -14.5484
lfemur -46.9496 2.27726 -11.6667
ltibia 65.4819
lfoot -29.0931 9.79163
ltoes -18.1084
100
root -0.0729535 15.5733 5.28639 17.2883 -0.537775 -3.17859
lowerback -0.779953 -0.617995 3.15345
upperback -4.15739 -0.725843 1.77979
thorax -3.86196 -0.437647 0.0879238
lowerneck -17.7954 -4.10348 -8.49227
upperneck 16.045 -4.72421 6.81762
head 8.27999 -2.07872 3.09799
rclavicle -8.59744e-015 3.18055e-014
rhumerus -38.7815 9.2394 -87.3061
rradius 47.1879
rwrist 7.6712
rhand -23.2438 -46.6639
rfingers 7.12502
rthumb 3.20762 -76.6195
lclavicle -8.59744e-015 3.18055e-014
lhumerus -36.5667 -9.70058 88.4422
lradius 44.8565
lwrist 8.88019
lhand -31.6168 -31.6033
lfingers 7.12502
lthumb -4.8787 -1.67947
rfemur -47.3526 -0.202747 18.6755
rtibia 67.4387
rfoot -27.6506 -14.014
rtoes -15.8039
lfemur -48.0336 2.32592 -11.9216
ltibia 67.1121
lfoot -28.9751 9.21643
ltoes -15.8118
101
root -0.079682 15.4733 5.27918 17.5457 -0.625112 -2.93907
lowerback -0.729681 -0.586722 2.6906
upperback -4.09559 -0.691269 1.75958
thorax -3.81794 -0.404169 0.324414
lowerneck -17.8837 -4.20375 -8.54474
upperneck 15.3942 -4.84122 6.97863
head 8.09288 -2.11837 3.1397
rclavicle 6.03808e-015 -1.78906e-015
rhumerus -38.579 9.55047 -87.0929
rradius 47.9454
rwrist 7.65292
rhand -23.2418 -46.9161
rfingers 7.12502
rthumb 3.20957 -76.8717
lclavicle 6.03808e-015 -1.78906e-015
lhumerus -36.4268 -10.0231 88.3032
lradius 45.3741
lwrist 8.52986
lhand -31.5306 -32.6043
lfingers 7.12502
lthumb -4.79553 -2.67857
rfemur -48.6456 -0.382434 18.3759
rtibia 69.0779
rfoot -28.1406 -14.0429
rtoes -16.8003
lfemur -49.2259 2.52443 -12.2056
ltibia 68.6073
lfoot -29.153 9.07096
ltoes -14.9642
102
root -0.0899039 15.3704 5.26496 17.849 -0.63203 -2.7821
lowerback -0.741888 -0.594085 2.27953
upperback -4.0037 -0.709636 1.78074
thorax -3.70896 -0.397971 0.575005
lowerneck -18.3258 -4.27689 -8.37176
upperneck 15.0202 -4.90363 6.83201
head 8.04143 -2.14295 3.04644
rclavicle 1.86361e-015 -4.17448e-015
rhumerus -38.2957 9.90661 -86.8802
rradius 48.6555
rwrist 7.81971
rhand -23.0166 -47.8733
rfingers 7.12502
rthumb 3.42703 -77.8255
lclavicle 1.86361e-015 -4.17448e-015
lhumerus -36.2456 -10.274 88.0813
lradius 46.0646
lwrist 8.21993
lhand -31.3367 -33.6422
lfingers 7.12502
lthumb -4.60828 -3.71236
rfemur -49.9811 -0.476237 18.1906
rtibia 70.6229
rfoot -28.6569 -13.8081
rtoes -16.6729
lfemur -50.5133 2.75725 -12.3748
ltibia 70.0394
lfoot -29.6719 9.44109
ltoes -16.1085
103
root -0.0944325 15.2651 5.25069 18.1298 -0.78304 -2.71016
lowerback -0.818343 -0.542575 2.00415
upperback -3.96741 -0.64826 1.7792
thorax -3.62371 -0.357751 0.724409
lowerneck -18.6408 -4.299 -8.12914
upperneck 14.8718 -4.91407 6.56284
head 8.03332 -2.15413 2.91018
rclavicle -1.46604e-015 9.93923e-016
rhumerus -38.3225 10.087 -86.6355
rradius 49.479
rwrist 8.33625
rhand -22.9656 -47.6916
rfingers 7.12502
rthumb 3.47627 -77.643
lclavicle -1.46604e-015 9.93923e-016
lhumerus -36.2049 -10.6718 87.9026
lradius 46.6797
lwrist 7.98625
lhand -31.5128 -34.486
lfingers 7.12502
lthumb -4.77828 -4.55985
rfemur -51.1861 -0.461233 18.0456
rtibia 71.9797
rfoot -29.067 -13.753
rtoes -16.6548
lfemur -51.6045 3.13703 -12.5192
ltibia 71.3318
lfoot -30.2105 9.69993
ltoes -16.699
104
root -0.092031 15.1762 5.24366 18.3283 -0.980413 -2.87282
lowerback -0.865251 -0.422778 2.04676
upperback -3.94984 -0.488519 1.81068
thorax -3.57877 -0.278444 0.728533
lowerneck -18.6931 -4.32586 -8.08714
upperneck 14.6382 -4.94318 6.5428
head 7.96496 -2.1663 2.89078
rclavicle -1.98785e-015 7.95139e-016
rhumerus -38.4593 10.1278 -86.3175
rradius 50.437
rwrist 8.47516
rhand -22.975 -47.2912
rfingers 7.12502
rthumb 3.46729 -77.2428
lclavicle -1.98785e-015 7.95139e-016
lhumerus -36.2778 -11.1052 87.7963
lradius 47.2521
lwrist 7.66292
lhand -31.8221 -34.7909
lfingers 7.12502
lthumb -5.07693 -4.87174
rfemur -52.0442 -0.348613 18.1311
rtibia 72.9928
rfoot -29.5027 -13.7632
rtoes -16.6843
lfemur -52.3642 3.57338 -12.4432
ltibia 72.3948
lfoot -30.6106 9.52766
ltoes -16.4315
105
root -0.0955884 15.1153 5.24913 18.5442 -1.10886 -3.18627
lowerback -0.981738 -0.329701 2.13635
upperback -3.96412 -0.362613 1.94984
thorax -3.52759 -0.215715 0.818077
lowerneck -18.7155 -4.34214 -8.1131
upperneck 14.3775 -4.94571 6.54991
head 7.88304 -2.16767 2.89532
rclavicle -3.97569e-016 -5.76476e-015
rhumerus -38.5651 10.3166 -85.9936
rradius 51.5213
rwrist 7.92537
rhand -22.6256 -48.5235
rfingers 7.12502
rthumb 3.80465 -78.4693
lclavicle -3.97569e-016 -5.76476e-015
lhumerus -36.4032 -11.4084 87.7325
lradius 47.7177
lwrist 7.21321
lhand -32.0347 -35.7746
lfingers 7.12502
lthumb -5.28226 -5.86041
rfemur -52.6488 -0.0949157 18.4298
rtibia 73.6406
rfoot -29.9096 -13.9277
rtoes -16.5518
lfemur -52.9716 4.02989 -12.1606
ltibia 73.1584
lfoot -31.0553 9.13944
ltoes -15.6622
106
root -0.0774405 15.0803 5.25474 18.6531 -0.851101 -3.4645
lowerback -1.0458 -0.398861 2.65348
upperback -3.88419 -0.451774 2.04689
thorax -3.41356 -0.273819 0.629436
lowerneck -18.7942 -4.3078 -8.01079
upperneck 13.9733 -4.87324 6.40006
head 7.74971 -2.14038 2.83461
rclavicle 4.57205e-015 -1.47101e-014
rhumerus -38.4956 10.5291 -85.6537
rradius 52.2633
rwrist 8.30419
rhand -22.9977 -48.0879
rfingers 7.12502
rthumb 3.44532 -78.0398
lclavicle 4.57205e-015 -1.47101e-014
lhumerus -36.2675 -11.6633 87.5583
lradius 48.0253
lwrist 6.46628
lhand -32.3895 -37.0882
lfingers 7.12502
lthumb -5.62483 -7.1829
rfemur -52.7912 -0.418005 18.7689
rtibia 73.9419
rfoot -30.2036 -14.2577
rtoes -16.7774
lfemur -53.3133 4.02833 -11.9329
ltibia 73.6241
lfoot -31.9524 9.64268
ltoes -16.7569
107
root -0.0693922 15.035 5.25803 18.6223 -1.00892 -3.41382
lowerback -0.966425 -0.393882 2.59127
upperback -3.72996 -0.447567 2.03908
thorax -3.29763 -0.268303 0.655181
lowerneck -18.9773 -4.30863 -7.9807
upperneck 13.6577 -4.8437 6.34641
head 7.6716 -2.12624 2.81213
rclavicle -3.37934e-015 -1.39149e-015
rhumerus -38.4046 10.4747 -85.2854
rradius 53.2872
rwrist 8.72599
rhand -23.0431 -48.145
rfingers 7.12502
rthumb 3.40149 -78.0976
lclavicle -3.37934e-015 -1.39149e-015
lhumerus -36.2158 -11.7737 87.2445
lradius 48.7243
lwrist 5.42499
lhand -32.6715 -37.1896
lfingers 7.12502
lthumb -5.89705 -7.29165
rfemur -52.932 -0.368497 18.7018
rtibia 74.1836
rfoot -30.2892 -14.6373
rtoes -16.9342
lfemur -53.32 4.22143 -12.1281
ltibia 73.8799
lfoot -32.8737 10.3675
ltoes -18.791
108
root -0.061466 15.0052 5.25973 18.628 -1.1843 -3.36083
lowerback -0.780389 -0.380975 2.53449
upperback -3.71138 -0.424181 2.02841
thorax -3.38267 -0.255612 0.676963
lowerneck -19.2186 -4.34965 -8.07324
upperneck 13.6759 -4.85935 6.36615
head 7.72259 -2.13233 2.82941
rclavicle -8.00108e-015 8.94531e-015
rhumerus -38.5145 10.2666 -84.9308
rradius 54.2
rwrist 9.28567
rhand -23.4344 -47.5719
rfingers 7.12502
rthumb 3.02362 -77.5302
lclavicle -8.00108e-015 8.94531e-015
lhumerus -36.4737 -11.7537 86.9623
lradius 49.5025
lwrist 4.24833
lhand -33.0601 -37.4052
lfingers 7.12502
lthumb -6.2722 -7.51808
rfemur -53.0222 -0.308093 18.6783
rtibia 74.2526
rfoot -30.3254 -14.9617
rtoes -17.0389
lfemur -53.2313 4.38136 -12.3253
ltibia 73.9116
lfoot -33.4407 10.7303
ltoes -19.3811
